<?xml version="1.0" encoding="utf-8"?>
<!-- Generator: Adobe Illustrator 16.0.0, SVG Export Plug-In . SVG Version: 6.00 Build 0)  -->
<!DOCTYPE svg PUBLIC "-//W3C//DTD SVG 1.1//EN" "http://www.w3.org/Graphics/SVG/1.1/DTD/svg11.dtd">
<svg version="1.1" id="图层_1" xmlns="http://www.w3.org/2000/svg" xmlns:xlink="http://www.w3.org/1999/xlink" x="0px" y="0px"
	 width="300px" height="300px" viewBox="0 0 300 300" enable-background="new 0 0 300 300" xml:space="preserve">
<path d="M219.099,32.537c33.417,0,60.604,28.48,60.604,63.483c0,8.546-2.309,17.267-6.187,23.333
	c-21.356,33.497-94.445,109.395-124.342,139.938C119.285,228.748,46.196,152.867,24.822,119.353
	c-3.868-6.066-6.175-14.787-6.175-23.333c0-35.003,27.185-63.483,60.602-63.483c22.402,0,42.894,12.888,53.479,33.639
	c3.246,6.357,9.558,10.331,16.446,10.331c6.887,0,13.2-3.973,16.445-10.331C176.197,45.425,196.696,32.537,219.099,32.537
	 M219.099,13c-30.293,0-56.588,17.817-69.925,43.97C135.836,30.817,109.542,13,79.249,13C35.481,13,0,50.164,0,96.021
	c0,12.2,3.254,24.667,9.323,34.185c28.399,44.529,139.851,156.279,139.851,156.279s111.451-111.75,139.85-156.279
	c6.069-9.518,9.324-21.985,9.324-34.185C298.348,50.164,262.867,13,219.099,13L219.099,13z"/>
</svg>
