<?xml version="1.0" encoding="utf-8"?>
<!-- Generator: Adobe Illustrator 16.0.0, SVG Export Plug-In . SVG Version: 6.00 Build 0)  -->
<!DOCTYPE svg PUBLIC "-//W3C//DTD SVG 1.1//EN" "http://www.w3.org/Graphics/SVG/1.1/DTD/svg11.dtd">
<svg version="1.1" id="图层_1" xmlns="http://www.w3.org/2000/svg" xmlns:xlink="http://www.w3.org/1999/xlink" x="0px" y="0px"
	 width="300px" height="300px" viewBox="0 0 300 300" enable-background="new 0 0 300 300" xml:space="preserve">
<path fill-rule="evenodd" clip-rule="evenodd" d="M150.501,5.833C70.233,5.833,5.167,70.899,5.167,151.167
	c0,80.264,65.066,145.333,145.333,145.333c80.267,0,145.333-65.069,145.333-145.333C295.834,70.899,230.768,5.833,150.501,5.833z
	 M139.792,227.111c-2.457,2.53-5.826,3.966-9.342,3.988c-0.021,0-0.047,0-0.072,0c-3.491,0-6.844-1.397-9.314-3.881L52.627,158.38
	c-5.148-5.17-5.148-13.557,0-18.734c5.141-5.177,13.479-5.177,18.625,0l59.023,59.364L236.92,89.336
	c5.088-5.223,13.439-5.322,18.62-0.206c5.201,5.117,5.294,13.513,0.198,18.734L139.792,227.111z"/>
</svg>
