<?xml version="1.0" encoding="utf-8"?>
<!-- Generator: Adobe Illustrator 16.0.0, SVG Export Plug-In . SVG Version: 6.00 Build 0)  -->
<!DOCTYPE svg PUBLIC "-//W3C//DTD SVG 1.1//EN" "http://www.w3.org/Graphics/SVG/1.1/DTD/svg11.dtd">
<svg version="1.1" id="图层_1" xmlns="http://www.w3.org/2000/svg" xmlns:xlink="http://www.w3.org/1999/xlink" x="0px" y="0px"
	 width="300px" height="300px" viewBox="0 0 300 300" enable-background="new 0 0 300 300" xml:space="preserve">
<path fill-rule="evenodd" clip-rule="evenodd" d="M287.683,71.951c0,0-90.795-55.414-103.941-63.037
	c-13.148-7.616-18.746-6.305-18.746-6.305s0.451,0.145,0,37.819C45.15,40.887,9.08,160.188,9.08,160.188
	c60.062-53.29,102.902-54.103,110.192-56.723c7.289-2.631,45.723-6.305,45.723-6.305s-0.192,1.183,0,37.82
	c-1.053,12.167,18.746,0,18.746,0s85.528-42.676,97.695-50.428S287.683,71.951,287.683,71.951z"/>
<path fill-rule="evenodd" clip-rule="evenodd" d="M178.859,198.725c-7.293,2.613-45.724,6.264-45.724,6.264s0.193-1.175,0-37.569
	c1.049-12.095-18.745,0-18.745,0s-85.525,42.395-97.695,50.09c-12.171,7.703-6.249,12.528-6.249,12.528
	s90.797,55.051,103.944,62.619c13.147,7.567,18.745,6.257,18.745,6.257s-0.45-0.139,0-37.57
	c119.842-0.452,155.916-118.973,155.916-118.973C228.989,195.314,186.152,196.118,178.859,198.725z"/>
</svg>
