<?xml version="1.0" encoding="utf-8"?>
<!-- Generator: Adobe Illustrator 16.0.0, SVG Export Plug-In . SVG Version: 6.00 Build 0)  -->
<!DOCTYPE svg PUBLIC "-//W3C//DTD SVG 1.1//EN" "http://www.w3.org/Graphics/SVG/1.1/DTD/svg11.dtd">
<svg version="1.1" id="图层_1" xmlns="http://www.w3.org/2000/svg" xmlns:xlink="http://www.w3.org/1999/xlink" x="0px" y="0px"
	 width="300px" height="300px" viewBox="0 0 300 300" enable-background="new 0 0 300 300" xml:space="preserve">
<g>
	<path fill-rule="evenodd" clip-rule="evenodd" d="M183.843,197.027c7.011-5.057,12.858-11.625,17.034-19.248l84.279-84.281
		c7.26,17.372,11.283,36.435,11.283,56.441c0,16.487-2.805,32.301-7.829,47.088H183.843z M207.986,149.939
		c0-2.549-0.175-5.055-0.495-7.514V15.261c31.549,13.513,57.419,37.731,72.958,68.148l-72.817,72.816
		C207.854,154.157,207.986,152.063,207.986,149.939z M183.806,102.86L95.053,14.109c16.955-6.859,35.47-10.67,54.885-10.67
		c16.49,0,32.304,2.801,47.089,7.826v104.834C193.354,111.013,188.896,106.53,183.806,102.86z M149.938,91.893
		c-2.488,0-4.929,0.189-7.334,0.492H15.267c13.725-32.043,38.487-58.238,69.576-73.688l73.937,73.939
		C155.891,92.192,152.953,91.893,149.938,91.893z M105.156,113.004l-1.146-1.146l-90.768,90.768
		c-6.308-16.355-9.803-34.108-9.803-52.688c0-16.49,2.805-32.302,7.829-47.089h104.861
		C112.063,105.774,108.34,109.148,105.156,113.004z M91.893,149.939c0,2.465,0.193,4.882,0.492,7.264v127.401
		c-32.753-14.022-59.401-39.563-74.707-71.613l75.617-75.617C92.399,141.425,91.893,145.618,91.893,149.939z M111.627,193.47
		l92.553,92.553c-16.781,6.696-35.071,10.417-54.242,10.417c-16.487,0-32.299-2.808-47.088-7.833V183.729
		C105.417,187.287,108.34,190.572,111.627,193.47z M149.938,207.985c2.529,0,5.014-0.181,7.46-0.492h127.209
		c-13.811,32.252-38.797,58.581-70.166,73.991l-74.404-74.404C143.262,207.636,146.557,207.985,149.938,207.985z"/>
</g>
</svg>
