<?xml version="1.0" encoding="utf-8"?>
<!-- Generator: Adobe Illustrator 16.0.0, SVG Export Plug-In . SVG Version: 6.00 Build 0)  -->
<!DOCTYPE svg PUBLIC "-//W3C//DTD SVG 1.1//EN" "http://www.w3.org/Graphics/SVG/1.1/DTD/svg11.dtd">
<svg version="1.1" id="图层_1" xmlns="http://www.w3.org/2000/svg" xmlns:xlink="http://www.w3.org/1999/xlink" x="0px" y="0px"
	 width="300px" height="300px" viewBox="0 0 300 300" enable-background="new 0 0 300 300" xml:space="preserve">
<path fill-rule="evenodd" clip-rule="evenodd" d="M239.858,3.309H61.285c-17.93,0-32.467,14.538-32.467,32.468v227.274
	c0,17.931,14.538,32.469,32.467,32.469h178.574c17.93,0,32.468-14.538,32.468-32.469V35.777
	C272.326,17.846,257.788,3.309,239.858,3.309z M170.864,214.349H81.578c-6.727,0-12.176-5.452-12.176-12.175
	c0-6.721,5.45-12.176,12.176-12.176h89.286c6.722,0,12.175,5.455,12.175,12.176C183.039,208.896,177.586,214.349,170.864,214.349z
	 M203.332,157.53H81.578c-6.727,0-12.176-5.449-12.176-12.175c0-6.721,5.45-12.175,12.176-12.175h121.754
	c6.722,0,12.176,5.455,12.176,12.175C215.508,152.081,210.054,157.53,203.332,157.53z M219.565,100.711H81.578
	c-6.727,0-12.176-5.449-12.176-12.175c0-6.721,5.45-12.175,12.176-12.175h137.987c6.722,0,12.176,5.454,12.176,12.175
	C231.741,95.263,226.287,100.711,219.565,100.711z"/>
</svg>
