<?xml version="1.0" encoding="utf-8"?>
<!-- Generator: Adobe Illustrator 16.0.0, SVG Export Plug-In . SVG Version: 6.00 Build 0)  -->
<!DOCTYPE svg PUBLIC "-//W3C//DTD SVG 1.1//EN" "http://www.w3.org/Graphics/SVG/1.1/DTD/svg11.dtd">
<svg version="1.1" id="图层_1" xmlns="http://www.w3.org/2000/svg" xmlns:xlink="http://www.w3.org/1999/xlink" x="0px" y="0px"
	 width="300px" height="300px" viewBox="0 0 300 300" enable-background="new 0 0 300 300" xml:space="preserve">
<g>
	<rect x="139.584" y="94.608" width="18.613" height="18.612"/>
	<rect x="214.029" y="196.971" width="18.613" height="18.611"/>
	<rect x="65.139" y="169.054" width="18.612" height="18.612"/>
	<path d="M260.557,1.553H37.222C16.692,1.553,0,18.249,0,38.776v223.335c0,20.525,16.692,37.223,37.222,37.223h223.335
		c20.531,0,37.225-16.697,37.225-37.223V38.776C297.781,18.249,281.088,1.553,260.557,1.553z M83.751,204.564v48.241
		c0,5.137-4.166,9.306-9.306,9.306c-5.141,0-9.307-4.169-9.307-9.306v-48.249c-10.804-3.854-18.61-14.08-18.61-26.196
		c0-12.117,7.807-22.344,18.61-26.205V48.081c0-5.138,4.166-9.305,9.307-9.305c5.14,0,9.306,4.167,9.306,9.305v104.074
		c10.804,3.861,18.611,14.088,18.611,26.205C102.362,190.477,94.555,200.703,83.751,204.564z M158.197,130.121v122.685
		c0,5.137-4.166,9.306-9.306,9.306c-5.142,0-9.307-4.169-9.307-9.306V130.112c-10.804-3.854-18.611-14.08-18.611-26.197
		c0-12.117,7.808-22.343,18.611-26.206V48.081c0-5.138,4.166-9.305,9.307-9.305c5.14,0,9.306,4.167,9.306,9.305v29.628
		c10.803,3.862,18.611,14.088,18.611,26.206C176.809,116.032,169,126.257,158.197,130.121z M232.643,232.481v20.324
		c0,5.137-4.166,9.306-9.307,9.306c-5.143,0-9.307-4.169-9.307-9.306v-20.332c-10.803-3.854-18.611-14.08-18.611-26.196
		c0-12.117,7.809-22.344,18.611-26.205V48.081c0-5.138,4.164-9.305,9.307-9.305c5.141,0,9.307,4.167,9.307,9.305v131.991
		c10.803,3.861,18.609,14.088,18.609,26.205C251.252,218.394,243.445,228.62,232.643,232.481z"/>
</g>
</svg>
