<?xml version="1.0" encoding="utf-8"?>
<!-- Generator: Adobe Illustrator 16.0.0, SVG Export Plug-In . SVG Version: 6.00 Build 0)  -->
<!DOCTYPE svg PUBLIC "-//W3C//DTD SVG 1.1//EN" "http://www.w3.org/Graphics/SVG/1.1/DTD/svg11.dtd">
<svg version="1.1" id="图层_1" xmlns="http://www.w3.org/2000/svg" xmlns:xlink="http://www.w3.org/1999/xlink" x="0px" y="0px"
	 width="300px" height="300px" viewBox="0 0 300 300" enable-background="new 0 0 300 300" xml:space="preserve">
<g>
	<path d="M254.536,260.121c0,21.161-19.213,38.3-42.914,38.3H85.761c-23.703,0-42.924-17.139-42.924-38.3V42.523
		c0-21.133,19.221-38.295,42.924-38.295h125.861c23.701,0,42.914,17.162,42.914,38.295V260.121z M234.937,57.804H61.583v185.313
		h173.354V57.804z M148.372,257.535c-7.883,0-14.266,6.088-14.266,13.62c0,7.523,6.383,13.628,14.266,13.628
		c7.874,0,14.257-6.104,14.257-13.628C162.629,263.623,156.246,257.535,148.372,257.535z M179.113,30.749
		c0-3.349-2.622-7.753-5.521-7.753h-51.65c-2.451,0-5.481,4.363-5.481,7.753l0,0c0,5.144,2.899,10.037,5.343,10.037h51.789
		C176.347,40.786,179.113,36.989,179.113,30.749L179.113,30.749z"/>
</g>
</svg>
