<?xml version="1.0" encoding="utf-8"?>
<!-- Generator: Adobe Illustrator 16.0.0, SVG Export Plug-In . SVG Version: 6.00 Build 0)  -->
<!DOCTYPE svg PUBLIC "-//W3C//DTD SVG 1.1//EN" "http://www.w3.org/Graphics/SVG/1.1/DTD/svg11.dtd">
<svg version="1.1" id="图层_1" xmlns="http://www.w3.org/2000/svg" xmlns:xlink="http://www.w3.org/1999/xlink" x="0px" y="0px"
	 width="300px" height="300px" viewBox="0 0 300 300" enable-background="new 0 0 300 300" xml:space="preserve">
<g>
	<path fill-rule="evenodd" clip-rule="evenodd" d="M231.084,297.42H70.195c-23.021,0-38.124-17.332-38.124-37.989v-98.734
		c0-11.316,9.378-20.489,20.949-20.489H66.99v0.762h167.483v-0.762h15.216c11.575,0,20.953,9.173,20.953,20.489v96.637
		C270.642,279.856,254.107,297.42,231.084,297.42z M191.884,122.105V84.268c0-25.827-16.266-41.28-41.464-41.28
		c-22.698,0-38.353,15.453-38.353,41.28v37.837H72.104v-46.66c0-39.608,34.076-71.715,79.562-71.715
		c40.504,0,78.941,32.107,78.941,71.715v46.66H191.884z"/>
</g>
</svg>
