<?xml version="1.0" encoding="utf-8"?>
<!-- Generator: Adobe Illustrator 16.0.0, SVG Export Plug-In . SVG Version: 6.00 Build 0)  -->
<!DOCTYPE svg PUBLIC "-//W3C//DTD SVG 1.1//EN" "http://www.w3.org/Graphics/SVG/1.1/DTD/svg11.dtd">
<svg version="1.1" id="图层_1" xmlns="http://www.w3.org/2000/svg" xmlns:xlink="http://www.w3.org/1999/xlink" x="0px" y="0px"
	 width="300px" height="300px" viewBox="0 0 300 300" enable-background="new 0 0 300 300" xml:space="preserve">
<g>
	<path fill-rule="evenodd" clip-rule="evenodd" d="M249.854,263.6c-0.552-3.803-1.286-7.661-2.282-11.505
		c-5.565-21.439-19.061-56.889-24.725-69.512c-5.68-12.591-12.585-18.394-28.359-23.606c-15.776-5.234-24.809-13.289-25.23-18.653
		c-0.574-7.273-0.589-12.362,6.239-19.505c7.256-7.583,10.962-20.927,7.042-33.931c-4.148-13.748-18.264-21.747-31.415-21.747
		c-12.575,0-27.418,6.859-30.755,26.217c-2.044,11.712,1.018,23.89,8.764,31.553c5.137,5.082,4.723,10.265,4.019,17.001
		c-0.918,8.825-12.354,14.06-20.728,17.315c-7.777,3.015-20.805,4.18-28.399,16.41c-6.988,11.222-27.686,64.032-31.977,89.896
		C23.76,236.818,5.979,198.911,5.979,156.727c0-80.84,64.922-146.377,145.007-146.377c80.083,0,145.009,65.538,145.009,146.377
		C295.995,198.95,278.183,236.887,249.854,263.6z M207.807,247.895c6.186,16.816,11.619,25.802,12.913,34.803
		c0.107,0.706,0.169,1.47,0.229,2.221c-5.005,2.794-10.202,5.244-15.546,7.432c0.092-3.237-0.037-6.948-0.58-11.305
		c-2.182-17.674-3.943-29.385-3.813-33.674C201.125,243.115,201.607,231.068,207.807,247.895z M83.213,286.096
		c-0.03-1.997-0.191-3.696-0.275-4.638c-0.398-3.919,7.149-26.088,9.829-31.629c2.671-5.549,8.833-18.554,8.374-0.598
		c-0.452,17.959-4.546,31.019-4.363,40.692c0.015,0.904,0.139,1.709,0.199,2.572C92.261,290.591,87.667,288.47,83.213,286.096z"/>
</g>
</svg>
