<?xml version="1.0" encoding="utf-8"?>
<!-- Generator: Adobe Illustrator 16.0.0, SVG Export Plug-In . SVG Version: 6.00 Build 0)  -->
<!DOCTYPE svg PUBLIC "-//W3C//DTD SVG 1.1//EN" "http://www.w3.org/Graphics/SVG/1.1/DTD/svg11.dtd">
<svg version="1.1" id="图层_1" xmlns="http://www.w3.org/2000/svg" xmlns:xlink="http://www.w3.org/1999/xlink" x="0px" y="0px"
	 width="300px" height="300px" viewBox="0 0 300 300" enable-background="new 0 0 300 300" xml:space="preserve">
<g>
	<path fill-rule="evenodd" clip-rule="evenodd" d="M175.624,133.167h-33.167v33.167c0,4.576-3.713,8.292-8.292,8.292
		s-8.292-3.716-8.292-8.292v-33.167H92.707c-4.579,0-8.292-3.708-8.292-8.292c0-4.584,3.712-8.292,8.292-8.292h33.167V83.417
		c0-4.583,3.712-8.292,8.292-8.292s8.292,3.708,8.292,8.292v33.167h33.167c4.58,0,8.292,3.708,8.292,8.292
		C183.916,129.458,180.204,133.167,175.624,133.167z"/>
	<path d="M297.267,283.08l-78.993-69.668c21.676-22.632,35.085-53.248,35.085-86.982c0-69.435-56.492-125.93-125.93-125.93
		C57.99,0.5,1.499,56.995,1.499,126.43c0,69.436,56.491,125.93,125.93,125.93c28.984,0,55.64-9.945,76.948-26.463l79.696,70.367
		c1.825,1.821,4.21,2.736,6.598,2.736s4.772-0.915,6.596-2.736C300.911,292.627,300.911,286.723,297.267,283.08z M20.155,126.43
		c0-59.151,48.123-107.273,107.273-107.273c59.151,0,107.273,48.123,107.273,107.273c0,59.15-48.122,107.273-107.273,107.273
		C68.278,233.703,20.155,185.58,20.155,126.43z"/>
</g>
</svg>
