<?xml version="1.0" encoding="utf-8"?>
<!-- Generator: Adobe Illustrator 16.0.0, SVG Export Plug-In . SVG Version: 6.00 Build 0)  -->
<!DOCTYPE svg PUBLIC "-//W3C//DTD SVG 1.1//EN" "http://www.w3.org/Graphics/SVG/1.1/DTD/svg11.dtd">
<svg version="1.1" id="图层_1" xmlns="http://www.w3.org/2000/svg" xmlns:xlink="http://www.w3.org/1999/xlink" x="0px" y="0px"
	 width="300px" height="300px" viewBox="0 0 300 300" enable-background="new 0 0 300 300" xml:space="preserve">
<path fill-rule="evenodd" clip-rule="evenodd" d="M147.487,7.031c-80.462,0-145.691,64.742-145.691,144.6
	c0,79.868,65.229,144.604,145.691,144.604c80.46,0,145.684-64.736,145.684-144.604C293.171,71.773,227.947,7.031,147.487,7.031z
	 M80.714,182.515c-16.761,0-30.353-13.494-30.353-30.131c0-16.634,13.592-30.124,30.353-30.124c16.766,0,30.353,13.49,30.353,30.124
	C111.067,169.021,97.479,182.515,80.714,182.515z M147.487,248.788c-16.761,0-30.353-13.493-30.353-30.123
	c0-16.642,13.592-30.126,30.353-30.126c16.766,0,30.353,13.484,30.353,30.126C177.84,235.295,164.253,248.788,147.487,248.788z
	 M135.598,152.384c0-6.652,5.437-12.045,12.14-12.045c6.707,0,12.145,5.394,12.145,12.045c0,6.658-5.438,12.054-12.145,12.054
	C141.035,164.438,135.598,159.042,135.598,152.384z M147.487,116.234c-16.761,0-30.353-13.486-30.353-30.124
	c0-16.636,13.592-30.126,30.353-30.126c16.766,0,30.353,13.49,30.353,30.126C177.84,102.748,164.253,116.234,147.487,116.234z
	 M214.266,182.515c-16.766,0-30.354-13.494-30.354-30.131c0-16.634,13.589-30.124,30.354-30.124
	c16.755,0,30.344,13.49,30.344,30.124C244.609,169.021,231.021,182.515,214.266,182.515z"/>
</svg>
