<?xml version="1.0" encoding="utf-8"?>
<!-- Generator: Adobe Illustrator 16.0.0, SVG Export Plug-In . SVG Version: 6.00 Build 0)  -->
<!DOCTYPE svg PUBLIC "-//W3C//DTD SVG 1.1//EN" "http://www.w3.org/Graphics/SVG/1.1/DTD/svg11.dtd">
<svg version="1.1" id="图层_1" xmlns="http://www.w3.org/2000/svg" xmlns:xlink="http://www.w3.org/1999/xlink" x="0px" y="0px"
	 width="300px" height="300px" viewBox="0 0 300 300" enable-background="new 0 0 300 300" xml:space="preserve">
<g>
	<path d="M148.591,0.549c81.449-0.783,148.13,64.117,148.917,144.949c0.74,77-58.719,139.005-134.557,147.22
		c-20.069,2.171-43.803,4.588-85.79,0.703c-46.134-4.268-69.67-14.074-65.555-14.766c12.568-2.101,22.642-5.341,30.64-9.806
		c8.956-4.973,6.148-15.258-1.072-23.329C18.953,220.672,2.855,186.563,2.49,148.3C1.702,67.469,67.118,1.326,148.591,0.549z
		 M223.389,149.105c0,13.501,11.028,24.449,24.643,24.449c13.606,0,24.635-10.947,24.635-24.449
		c0-13.512-11.028-24.445-24.635-24.445C234.417,124.66,223.389,135.593,223.389,149.105z M124.988,148.925
		c0,13.829,11.28,25.042,25.239,25.042c13.951,0,25.247-11.214,25.247-25.042c0-13.842-11.296-25.042-25.247-25.042
		C136.268,123.883,124.988,135.083,124.988,148.925z M27.487,148.743c0,13.723,11.211,24.853,25.052,24.853
		c13.839,0,25.056-11.13,25.056-24.853c0-13.74-11.217-24.856-25.056-24.856C38.698,123.887,27.487,135.003,27.487,148.743z"/>
</g>
</svg>
