<?xml version="1.0" encoding="utf-8"?>
<!-- Generator: Adobe Illustrator 16.0.0, SVG Export Plug-In . SVG Version: 6.00 Build 0)  -->
<!DOCTYPE svg PUBLIC "-//W3C//DTD SVG 1.1//EN" "http://www.w3.org/Graphics/SVG/1.1/DTD/svg11.dtd">
<svg version="1.1" id="图层_1" xmlns="http://www.w3.org/2000/svg" xmlns:xlink="http://www.w3.org/1999/xlink" x="0px" y="0px"
	 width="300px" height="300px" viewBox="0 0 300 300" enable-background="new 0 0 300 300" xml:space="preserve">
<path d="M262.529,1.681H38.79C18.227,1.681,1.5,18.407,1.5,38.97v223.74C1.5,283.272,18.227,300,38.79,300h223.739
	c20.564,0,37.29-16.728,37.29-37.29V38.97C299.819,18.407,283.094,1.681,262.529,1.681z M76.08,159.127h107.727
	c4.581,0,8.286,3.706,8.286,8.287c0,4.571-3.705,8.286-8.286,8.286H76.08c-4.581,0-8.287-3.715-8.287-8.286
	C67.793,162.833,71.5,159.127,76.08,159.127z M67.793,125.98c0-4.581,3.707-8.287,8.287-8.287h107.727
	c4.581,0,8.286,3.706,8.286,8.287c0,4.58-3.705,8.286-8.286,8.286H76.08C71.5,134.267,67.793,130.561,67.793,125.98z
	 M225.239,217.134H76.08c-4.581,0-8.287-3.708-8.287-8.287c0-4.58,3.707-8.287,8.287-8.287h149.159c4.581,0,8.287,3.707,8.287,8.287
	C233.526,213.426,229.82,217.134,225.239,217.134z M225.239,92.834H76.08c-4.581,0-8.287-3.715-8.287-8.287
	c0-4.581,3.707-8.287,8.287-8.287h149.159c4.581,0,8.287,3.706,8.287,8.287C233.526,89.119,229.82,92.834,225.239,92.834z"/>
</svg>
