<?xml version="1.0" encoding="utf-8"?>
<!-- Generator: Adobe Illustrator 16.0.0, SVG Export Plug-In . SVG Version: 6.00 Build 0)  -->
<!DOCTYPE svg PUBLIC "-//W3C//DTD SVG 1.1//EN" "http://www.w3.org/Graphics/SVG/1.1/DTD/svg11.dtd">
<svg version="1.1" id="图层_1" xmlns="http://www.w3.org/2000/svg" xmlns:xlink="http://www.w3.org/1999/xlink" x="0px" y="0px"
	 width="300px" height="300px" viewBox="0 0 300 300" enable-background="new 0 0 300 300" xml:space="preserve">
<g>
	<path fill-rule="evenodd" clip-rule="evenodd" d="M74.706,76.654H223.68c4.575,0,8.277,3.702,8.277,8.276
		c0,4.566-3.702,8.274-8.277,8.274H74.706c-4.575,0-8.276-3.708-8.276-8.274C66.43,80.355,70.131,76.654,74.706,76.654z"/>
	<path fill-rule="evenodd" clip-rule="evenodd" d="M74.706,118.035h107.593c4.574,0,8.275,3.701,8.275,8.276
		c0,4.576-3.701,8.277-8.275,8.277H74.706c-4.575,0-8.276-3.701-8.276-8.277C66.43,121.736,70.131,118.035,74.706,118.035z"/>
	<path fill-rule="evenodd" clip-rule="evenodd" d="M74.706,159.415h107.593c4.574,0,8.275,3.701,8.275,8.276
		c0,4.565-3.701,8.276-8.275,8.276H74.706c-4.575,0-8.276-3.711-8.276-8.276C66.43,163.116,70.131,159.415,74.706,159.415z"/>
	<path fill-rule="evenodd" clip-rule="evenodd" d="M74.706,200.797H223.68c4.575,0,8.277,3.703,8.277,8.277
		c0,4.572-3.702,8.274-8.277,8.274H74.706c-4.575,0-8.276-3.702-8.276-8.274C66.43,204.5,70.131,200.797,74.706,200.797z"/>
	<path d="M260.923,2.167H37.463c-20.537,0-37.243,16.707-37.243,37.243V262.87c0,20.535,16.706,37.242,37.243,37.242h223.459
		c20.537,0,37.244-16.707,37.244-37.242V39.409C298.167,18.873,281.46,2.167,260.923,2.167z M279.546,262.87
		c0,10.271-8.358,18.621-18.623,18.621H37.463c-10.264,0-18.622-8.35-18.622-18.621V39.409c0-10.272,8.357-18.622,18.622-18.622
		h223.459c10.265,0,18.623,8.349,18.623,18.622V262.87z"/>
</g>
</svg>
