<?xml version="1.0" encoding="utf-8"?>
<!-- Generator: Adobe Illustrator 16.0.0, SVG Export Plug-In . SVG Version: 6.00 Build 0)  -->
<!DOCTYPE svg PUBLIC "-//W3C//DTD SVG 1.1//EN" "http://www.w3.org/Graphics/SVG/1.1/DTD/svg11.dtd">
<svg version="1.1" id="图层_1" xmlns="http://www.w3.org/2000/svg" xmlns:xlink="http://www.w3.org/1999/xlink" x="0px" y="0px"
	 width="300px" height="300px" viewBox="0 0 300 300" enable-background="new 0 0 300 300" xml:space="preserve">
<g>
	<path d="M148.183,1.173c-17.642,0-39.461,4.844-54.749,26.777C77.257,51.137,78.939,90.419,78.939,90.419
		s-8.385,9.272-4.167,22.678c4.228,13.407,11.387,13.963,11.387,13.963s4.062,17.44,10.414,22.773
		c6.353,5.324,12.838,9.651,13.608,18.947c1.037,12.406,1.206,19.933-15.287,30.564c-20.908,13.463-58.854,10.14-63.193,39.583
		c-3.776,25.54-0.538,42.932,3.387,46.044c7.042,5.6,78.808,13.383,113.095,13.514c34.28,0.104,111.234-7.891,117.14-16.498
		c5.913-8.615,5.001-36.169,1.064-48.456c-6.72-20.989-36.792-23.272-56.192-31.258c-21.716-8.889-23.321-22.869-21.296-34.477
		c1.727-9.909,6.438-11.932,13.77-18.001c6.396-5.324,10.382-22.736,10.382-22.736s10.641-2.346,12.503-19.044
		c1.469-12.872-5.291-17.349-5.291-17.349s2.258-41.401-17.585-66.521C193.787,12.918,170.999,1.173,148.183,1.173"/>
</g>
</svg>
