<?xml version="1.0" encoding="utf-8"?>
<!-- Generator: Adobe Illustrator 16.0.0, SVG Export Plug-In . SVG Version: 6.00 Build 0)  -->
<!DOCTYPE svg PUBLIC "-//W3C//DTD SVG 1.1//EN" "http://www.w3.org/Graphics/SVG/1.1/DTD/svg11.dtd">
<svg version="1.1" id="图层_1" xmlns="http://www.w3.org/2000/svg" xmlns:xlink="http://www.w3.org/1999/xlink" x="0px" y="0px"
	 width="300px" height="300px" viewBox="0 0 300 300" enable-background="new 0 0 300 300" xml:space="preserve">
<g>
	<path d="M294.364,282.339l-77.954-68.737c21.391-22.345,34.622-52.537,34.622-85.836C251.032,59.247,195.285,3.5,126.767,3.5
		S2.501,59.247,2.501,127.766s55.747,124.266,124.266,124.266c28.604,0,54.906-9.804,75.929-26.119l78.645,69.451
		c1.794,1.795,4.153,2.692,6.512,2.692s4.718-0.897,6.513-2.692C297.954,291.763,297.954,285.939,294.364,282.339z M20.911,127.766
		c0-58.371,47.486-105.856,105.856-105.856s105.856,47.485,105.856,105.856c0,58.37-47.486,105.856-105.856,105.856
		S20.911,186.136,20.911,127.766z"/>
</g>
</svg>
