<?xml version="1.0" encoding="utf-8"?>
<!-- Generator: Adobe Illustrator 16.0.0, SVG Export Plug-In . SVG Version: 6.00 Build 0)  -->
<!DOCTYPE svg PUBLIC "-//W3C//DTD SVG 1.1//EN" "http://www.w3.org/Graphics/SVG/1.1/DTD/svg11.dtd">
<svg version="1.1" id="图层_1" xmlns="http://www.w3.org/2000/svg" xmlns:xlink="http://www.w3.org/1999/xlink" x="0px" y="0px"
	 width="300px" height="300px" viewBox="0 0 300 300" enable-background="new 0 0 300 300" xml:space="preserve">
<path d="M245.953,102.094c28.149,0,51.047-22.905,51.047-51.047S274.103,0,245.953,0s-51.047,22.905-51.047,51.047
	c0,2.494,0.241,4.923,0.588,7.324L88.164,99.645c-9.314-9.894-22.486-16.113-37.117-16.113C22.897,83.531,0,106.437,0,134.578
	s22.897,51.047,51.047,51.047c10.973,0,21.124-3.513,29.455-9.426l72.703,48.468c-2.989,6.494-4.705,13.681-4.705,21.286
	c0,28.143,22.897,51.047,51.047,51.047s51.047-22.904,51.047-51.047c0-28.142-22.897-51.047-51.047-51.047
	c-13.865,0-26.442,5.575-35.651,14.582l-70.262-46.841c5.334-8.064,8.46-17.7,8.46-28.069c0-6.707-1.337-13.096-3.698-18.969
	L201.448,75.97C210.198,91.536,226.859,102.094,245.953,102.094z M51.047,167.063c-17.91,0-32.484-14.574-32.484-32.484
	c0-17.91,14.574-32.484,32.484-32.484s32.484,14.575,32.484,32.484C83.531,152.488,68.957,167.063,51.047,167.063z M199.547,213.469
	c17.91,0,32.484,14.574,32.484,32.484s-14.574,32.484-32.484,32.484s-32.484-14.574-32.484-32.484S181.637,213.469,199.547,213.469z
	 M245.953,18.563c17.91,0,32.484,14.575,32.484,32.484c0,17.91-14.574,32.484-32.484,32.484s-32.484-14.574-32.484-32.484
	C213.469,33.137,228.043,18.563,245.953,18.563z"/>
</svg>
