<?xml version="1.0" encoding="utf-8"?>
<!-- Generator: Adobe Illustrator 16.0.0, SVG Export Plug-In . SVG Version: 6.00 Build 0)  -->
<!DOCTYPE svg PUBLIC "-//W3C//DTD SVG 1.1//EN" "http://www.w3.org/Graphics/SVG/1.1/DTD/svg11.dtd">
<svg version="1.1" id="图层_1" xmlns="http://www.w3.org/2000/svg" xmlns:xlink="http://www.w3.org/1999/xlink" x="0px" y="0px"
	 width="300px" height="300px" viewBox="0 0 300 300" enable-background="new 0 0 300 300" xml:space="preserve">
<path fill-rule="evenodd" clip-rule="evenodd" d="M224.473,20.935c-29.323,0-58.677,9.179-73.993,14.836
	c-11.444-5.658-34.496-14.836-63.626-14.836C44.492,20.935,2,40.108,2,40.108v230.088c0,0,41.038-19.175,82.657-19.175
	c22.581,0,52.772,7.478,65.94,12.518c15.855-5.417,47.53-12.518,71.671-12.518c42.816,0,73.731,19.175,73.731,19.175V40.108
	C296,40.108,266.56,20.935,224.473,20.935z M139.619,244.63c0,0-12.151-12.782-54.962-12.782c-41.619,0-63.889,12.782-63.889,12.782
	V59.282c0,0,23.724-19.174,66.085-19.174c42.088,0,52.766,19.174,52.766,19.174V244.63z M277.232,244.63
	c0,0-12.147-12.782-54.964-12.782c-41.611,0-63.887,12.782-63.887,12.782V59.282c0,0,23.729-19.174,66.091-19.174
	c42.087,0,52.76,19.174,52.76,19.174V244.63z"/>
</svg>
