<?xml version="1.0" encoding="utf-8"?>
<!-- Generator: Adobe Illustrator 16.0.0, SVG Export Plug-In . SVG Version: 6.00 Build 0)  -->
<!DOCTYPE svg PUBLIC "-//W3C//DTD SVG 1.1//EN" "http://www.w3.org/Graphics/SVG/1.1/DTD/svg11.dtd">
<svg version="1.1" id="图层_1" xmlns="http://www.w3.org/2000/svg" xmlns:xlink="http://www.w3.org/1999/xlink" x="0px" y="0px"
	 width="300px" height="300px" viewBox="0 0 300 300" enable-background="new 0 0 300 300" xml:space="preserve">
<g>
	<path d="M262.054,1.528H37.543c-20.638,0-37.418,16.785-37.418,37.418v224.509c0,20.634,16.781,37.42,37.418,37.42h224.51
		c20.637,0,37.419-16.786,37.419-37.42V38.946C299.473,18.313,282.69,1.528,262.054,1.528z M280.764,263.455
		c0,10.322-8.397,18.71-18.71,18.71H37.543c-10.313,0-18.709-8.388-18.709-18.71V38.946c0-10.321,8.396-18.709,18.709-18.709h224.51
		c10.313,0,18.71,8.388,18.71,18.709V263.455z"/>
	<path d="M84.316,152.923V48.3c0-5.164-4.186-9.354-9.355-9.354c-5.168,0-9.355,4.19-9.355,9.354v104.623
		c-10.86,3.88-18.708,14.161-18.708,26.342s7.848,22.462,18.708,26.333v48.504c0,5.166,4.187,9.354,9.355,9.354
		c5.169,0,9.355-4.188,9.355-9.354v-48.494c10.861-3.881,18.709-14.162,18.709-26.343S95.178,156.803,84.316,152.923z
		 M84.316,188.619h-18.71V169.91h18.71V188.619z"/>
	<path d="M215.279,180.987c-10.859,3.88-18.707,14.161-18.707,26.341c0,12.182,7.848,22.461,18.707,26.334v20.439
		c0,5.166,4.187,9.354,9.356,9.354c5.169,0,9.353-4.188,9.353-9.354v-20.431c10.861-3.882,18.71-14.161,18.71-26.343
		c0-12.18-7.849-22.461-18.71-26.341V48.3c0-5.164-4.184-9.354-9.353-9.354c-5.17,0-9.356,4.19-9.356,9.354V180.987z
		 M233.988,216.684h-18.709v-18.709h18.709V216.684z"/>
	<path d="M159.153,78.086V48.3c0-5.164-4.186-9.354-9.355-9.354c-5.167,0-9.354,4.19-9.354,9.354v29.786
		c-10.862,3.882-18.709,14.162-18.709,26.343c0,12.18,7.848,22.461,18.709,26.333v123.34c0,5.166,4.186,9.354,9.354,9.354
		c5.17,0,9.355-4.188,9.355-9.354V130.77c10.862-3.88,18.709-14.161,18.709-26.341C177.862,92.248,170.016,81.968,159.153,78.086z
		 M159.153,113.783h-18.709V95.074h18.709V113.783z"/>
</g>
</svg>
