<?xml version="1.0" encoding="utf-8"?>
<!-- Generator: Adobe Illustrator 16.0.0, SVG Export Plug-In . SVG Version: 6.00 Build 0)  -->
<!DOCTYPE svg PUBLIC "-//W3C//DTD SVG 1.1//EN" "http://www.w3.org/Graphics/SVG/1.1/DTD/svg11.dtd">
<svg version="1.1" id="图层_1" xmlns="http://www.w3.org/2000/svg" xmlns:xlink="http://www.w3.org/1999/xlink" x="0px" y="0px"
	 width="300px" height="300px" viewBox="0 0 300 300" enable-background="new 0 0 300 300" xml:space="preserve">
<g>
	<path d="M146.959,13.203c0,0-6.041-3.524-9.383-7.237c-3.321-3.717-12.01-5.077-17.664-1.533c-7.24,4.557-8.842,8.023-14.831,9.266
		c-6.812,1.416-17.624-6.816-23.572-2.01c-5.945,4.806-2.49,12.733,2.877,16.563c5.368,3.83,11.2,8.811,15.716,15.319
		c4.52,6.49,12.857,14.937,12.857,14.937h68.005c0,0,7.176-7.317,11.526-13.101c4.357-5.784,8.022-11.296,16.207-16.465
		c6.78-4.25,10.331-14.952,1.565-18.382c-7.587-2.946-10.67,3.18-19.477,3.333c-8.651,0.153-9.847-7.086-18.442-10.283
		c-8.588-3.196-13.201-0.383-18.317,4.479C148.928,12.972,146.959,13.203,146.959,13.203z"/>
	<path d="M184.435,76.275c0,0,13.576,20.041,38.888,41.083c21.542,17.944,48.128,49.034,38.92,102.667
		c-7.57,43.916-47.128,79.898-114.588,79.898c-69.68,0-106.437-43.44-113.483-81.762c-7.938-43.021,13.185-78.975,39.231-101.417
		c22.685-19.509,36.914-40.47,36.914-40.47H184.435z M147.875,158.51c0,0-16.829-17.232-20.465-20.695
		c-3.273-3.124-10.215-6.146-13.952-1.952c-3.898,4.382-0.867,9.859,1.574,12.251c2.434,2.373,23.487,24.452,23.487,24.452
		l-0.04,6.643c0,0-22.479,0-26.381,0c-3.898,0-7.345,6.876-7.22,10.533c0.125,3.641,3.08,6.497,7.212,6.497
		c4.132,0,26.305-0.16,26.305-0.16l-0.061,18.53c0,0-23.422,0-27.325,0c-3.899,0-7.171,3.891-7.325,7.555
		c-0.153,3.649,2.914,8.604,7.325,8.604c4.423,0,27.269,0,27.269,0s-0.048,6.345,0.117,8.984c0.367,5.899,4.265,8.304,9.479,8.402
		c5.209,0.097,8.911-4.23,8.898-8.097c-0.016-3.195-0.092-9.29-0.092-9.29s22.692-0.032,26.978,0c4.286,0.04,7.49-4.262,7.313-8.604
		c-0.152-4.373-2.816-7.708-9.322-7.708c-6.505,0-24.815,0-24.815,0l0.142-18.377l25.296-0.058c6.328,0.058,8.588-3.196,8.7-7.126
		c0.098-3.407-3.147-9.816-8.862-9.977h-25.275v-6.047c0,0,19.19-19.435,24.17-23.914c4.964-4.5,6.224-8.022,3.148-11.663
		c-3.107-3.713-8.597-3.483-12.607-0.19C167.469,140.459,147.875,158.51,147.875,158.51z"/>
</g>
</svg>
