<?xml version="1.0" encoding="utf-8"?>
<!-- Generator: Adobe Illustrator 16.0.0, SVG Export Plug-In . SVG Version: 6.00 Build 0)  -->
<!DOCTYPE svg PUBLIC "-//W3C//DTD SVG 1.1//EN" "http://www.w3.org/Graphics/SVG/1.1/DTD/svg11.dtd">
<svg version="1.1" id="图层_1" xmlns="http://www.w3.org/2000/svg" xmlns:xlink="http://www.w3.org/1999/xlink" x="0px" y="0px"
	 width="300px" height="300px" viewBox="0 0 300 300" enable-background="new 0 0 300 300" xml:space="preserve">
<path fill-rule="evenodd" clip-rule="evenodd" d="M32.282,117.936c-18.104,0-32.782,14.679-32.782,32.782S14.178,183.5,32.282,183.5
	c18.104,0,32.782-14.679,32.782-32.782S50.386,117.936,32.282,117.936z M32.282,172.573c-12.069,0-21.854-9.785-21.854-21.855
	c0-12.069,9.786-21.854,21.854-21.854s21.854,9.784,21.854,21.854C54.137,162.788,44.351,172.573,32.282,172.573z"/>
<path fill-rule="evenodd" clip-rule="evenodd" d="M152.482,117.936c-18.104,0-32.783,14.679-32.783,32.782
	s14.678,32.782,32.783,32.782c18.104,0,32.781-14.679,32.781-32.782S170.586,117.936,152.482,117.936z M152.482,172.573
	c-12.069,0-21.855-9.785-21.855-21.855c0-12.069,9.786-21.854,21.855-21.854c12.068,0,21.854,9.784,21.854,21.854
	C174.336,162.788,164.551,172.573,152.482,172.573z"/>
<path fill-rule="evenodd" clip-rule="evenodd" d="M267.218,117.936c-18.104,0-32.782,14.679-32.782,32.782
	s14.679,32.782,32.782,32.782S300,168.821,300,150.718S285.321,117.936,267.218,117.936z M267.218,172.573
	c-12.069,0-21.854-9.785-21.854-21.855c0-12.069,9.784-21.854,21.854-21.854c12.07,0,21.855,9.784,21.855,21.854
	C289.073,162.788,279.288,172.573,267.218,172.573z"/>
</svg>
