<?xml version="1.0" encoding="utf-8"?>
<!-- Generator: Adobe Illustrator 16.0.0, SVG Export Plug-In . SVG Version: 6.00 Build 0)  -->
<!DOCTYPE svg PUBLIC "-//W3C//DTD SVG 1.1//EN" "http://www.w3.org/Graphics/SVG/1.1/DTD/svg11.dtd">
<svg version="1.1" id="图层_1" xmlns="http://www.w3.org/2000/svg" xmlns:xlink="http://www.w3.org/1999/xlink" x="0px" y="0px"
	 width="300px" height="300px" viewBox="0 0 300 300" enable-background="new 0 0 300 300" xml:space="preserve">
<g>
	<path d="M195.806,100.838c15.331,11.62,90.589-9.384,100.516,17.031c9.915,26.418-68.842,49.024-74.45,70.586
		c-5.619,21.584,34.81,89.524,15.106,102.248c-19.701,12.749-63.509-49.465-89.18-50.022c-25.655-0.549-70.74,61.781-91.166,46.206
		c-20.422-15.623,27.37-77.452,19.329-101.551c-8.033-24.099-80.652-49.607-71.453-73.706c9.201-24.099,82.573-1.35,101.127-12.724
		c18.557-11.375,28.398-91.76,47.003-91.76S180.478,89.21,195.806,100.838z"/>
</g>
</svg>
