<?xml version="1.0" encoding="utf-8"?>
<!-- Generator: Adobe Illustrator 16.0.0, SVG Export Plug-In . SVG Version: 6.00 Build 0)  -->
<!DOCTYPE svg PUBLIC "-//W3C//DTD SVG 1.1//EN" "http://www.w3.org/Graphics/SVG/1.1/DTD/svg11.dtd">
<svg version="1.1" id="图层_1" xmlns="http://www.w3.org/2000/svg" xmlns:xlink="http://www.w3.org/1999/xlink" x="0px" y="0px"
	 width="300px" height="300px" viewBox="0 0 300 300" enable-background="new 0 0 300 300" xml:space="preserve">
<path fill-rule="evenodd" clip-rule="evenodd" d="M147.082,29.849c13.217,0,23.93,10.713,23.93,23.93
	c0,13.217-10.713,23.931-23.93,23.931c-13.217,0-23.93-10.713-23.93-23.931C123.151,40.563,133.865,29.849,147.082,29.849z"/>
<path fill-rule="evenodd" clip-rule="evenodd" d="M206.521,122.114c-4.271-16.843-16.385-33.843-25.253-37.118v-0.451h-58.116
	c-0.415-0.053-0.845-0.042-1.281,0h-2.138v0.524c-8.659,3.376-19.873,21.36-23.93,37.082c-4.617,17.895-0.754,52.853,0,61.535
	s6.837,10.256,6.837,10.256c3.502,0.7,5.719-3.528,6.837-6.838c1.119-3.309-0.654-20.976,0-37.604
	c0.655-16.629,5.652-28.667,6.837-34.187c0.453-2.105,1.816-3.055,3.419-3.635v68.589v75.21c0,7.552,6.123,13.674,13.674,13.674
	s13.675-6.122,13.675-13.674v-75.21h6.837v75.21c0,7.552,6.122,13.674,13.675,13.674c7.551,0,13.674-6.122,13.674-13.674v-75.21
	v-69.135c2.256,0.56,4.513,1.288,5.118,4.151c1.165,5.516,6.069,17.541,6.71,34.153c0.641,16.612-1.1,34.263,0,37.568
	c1.099,3.306,3.275,7.53,6.71,6.831c0,0,5.972-1.57,6.715-10.247C207.258,174.912,211.049,139.992,206.521,122.114z"/>
<path fill-rule="evenodd" clip-rule="evenodd" d="M150.5,2.5c-81.185,0-147,65.815-147,147c0,81.186,65.815,147,147,147
	c81.186,0,147-65.814,147-147C297.5,68.315,231.686,2.5,150.5,2.5z M150.5,289.663c-77.409,0-140.163-62.754-140.163-140.163
	S73.091,9.337,150.5,9.337S290.663,72.091,290.663,149.5S227.909,289.663,150.5,289.663z"/>
</svg>
