<?xml version="1.0" encoding="utf-8"?>
<!-- Generator: Adobe Illustrator 16.0.0, SVG Export Plug-In . SVG Version: 6.00 Build 0)  -->
<!DOCTYPE svg PUBLIC "-//W3C//DTD SVG 1.1//EN" "http://www.w3.org/Graphics/SVG/1.1/DTD/svg11.dtd">
<svg version="1.1" id="图层_1" xmlns="http://www.w3.org/2000/svg" xmlns:xlink="http://www.w3.org/1999/xlink" x="0px" y="0px"
	 width="625.992px" height="638.976px" viewBox="0 0 625.992 638.976" enable-background="new 0 0 625.992 638.976"
	 xml:space="preserve">
<path d="M568.286,369.918c-8.275-20.184-18.846-38.423-30.063-53.26c9.131-7.074,15.432-21.987,15.432-39.241
	c0-23.853-12.032-43.228-26.938-43.618c1.287-9.153,1.969-18.499,1.969-28.003c0-110.901-90.57-200.764-202.316-200.764
	c-111.692,0-202.272,89.863-202.272,200.764c0,10.66,0.846,21.124,2.459,31.335c-9.916,6.577-16.888,22.137-16.888,40.286
	c0,10.531,2.349,20.191,6.259,27.729c-12.971,14.002-25.614,31.956-35.971,52.586c-28.683,57.174-24.401,114.962-6.736,124.374
	c9.061,4.824,32.688-10.331,55.894-38.455c3.765,33.095,19.427,63.303,43.396,87.616c-39.71,11.742-66.027,34.921-62.5,58.45
	c4.393,29.729,54.673,48.78,112.344,42.561c42.203-4.574,76.63-21.419,90.341-41.787c3.539,0.159,7.102,0.246,10.688,0.246
	c6.166,0,12.261-0.25,18.281-0.716c14.65,19.399,47.102,35.511,86.232,40.51c55.914,7.104,104.311-11.166,108.07-40.813
	c2.975-23.372-22.61-46.846-60.936-59.237c22.497-23.105,37.542-51.447,42.083-82.492c20.607,28.179,41.678,46.178,52.699,43.758
	C582.836,488.889,592.145,428.122,568.286,369.918z"/>
</svg>
