<?xml version="1.0" encoding="utf-8"?>
<!-- Generator: Adobe Illustrator 16.0.0, SVG Export Plug-In . SVG Version: 6.00 Build 0)  -->
<!DOCTYPE svg PUBLIC "-//W3C//DTD SVG 1.1//EN" "http://www.w3.org/Graphics/SVG/1.1/DTD/svg11.dtd">
<svg version="1.1" id="图层_1" xmlns="http://www.w3.org/2000/svg" xmlns:xlink="http://www.w3.org/1999/xlink" x="0px" y="0px"
	 width="300px" height="300px" viewBox="0 0 300 300" enable-background="new 0 0 300 300" xml:space="preserve">
<g>
	<path fill-rule="evenodd" clip-rule="evenodd" d="M200.303,100.595c3.396,0,6.754,0.249,10.084,0.62
		C201.325,59.02,156.215,27.67,104.723,27.67C47.156,27.67,0,66.91,0,116.736c0,28.761,15.688,52.379,41.906,70.698l-10.474,31.505
		l36.609-18.359c13.099,2.595,23.61,5.259,36.682,5.259c3.286,0,6.545-0.163,9.777-0.416c-2.045-7.002-3.232-14.335-3.232-21.943
		C111.268,137.725,150.557,100.595,200.303,100.595z M143.995,72.202c7.883,0,13.108,5.187,13.108,13.067
		c0,7.849-5.225,13.108-13.108,13.108c-7.849,0-15.725-5.26-15.725-13.108C128.27,77.389,136.146,72.202,143.995,72.202z
		 M70.703,98.377c-7.849,0-15.77-5.26-15.77-13.108c0-7.88,7.92-13.067,15.77-13.067c7.849,0,13.072,5.187,13.072,13.067
		C83.775,93.117,78.551,98.377,70.703,98.377z"/>
	<path fill-rule="evenodd" clip-rule="evenodd" d="M295.882,182.22c0-41.869-41.896-75.999-88.951-75.999
		c-49.828,0-89.072,34.13-89.072,75.999c0,41.942,39.244,75.999,89.072,75.999c10.427,0,20.946-2.629,31.42-5.255l28.726,15.729
		l-7.877-26.172C280.221,226.75,295.882,205.838,295.882,182.22z M178.05,169.115c-5.213,0-10.473-5.187-10.473-10.479
		c0-5.219,5.26-10.474,10.473-10.474c7.922,0,13.11,5.255,13.11,10.474C191.16,163.929,185.972,169.115,178.05,169.115z
		 M235.654,169.115c-5.18,0-10.401-5.187-10.401-10.479c0-5.219,5.222-10.474,10.401-10.474c7.848,0,13.107,5.255,13.107,10.474
		C248.762,163.929,243.502,169.115,235.654,169.115z"/>
</g>
</svg>
