<?xml version="1.0" encoding="utf-8"?>
<!-- Generator: Adobe Illustrator 16.0.0, SVG Export Plug-In . SVG Version: 6.00 Build 0)  -->
<!DOCTYPE svg PUBLIC "-//W3C//DTD SVG 1.1//EN" "http://www.w3.org/Graphics/SVG/1.1/DTD/svg11.dtd">
<svg version="1.1" xmlns="http://www.w3.org/2000/svg" xmlns:xlink="http://www.w3.org/1999/xlink" x="0px" y="0px" width="300px"
	 height="300px" viewBox="0 0 300 300" enable-background="new 0 0 300 300" xml:space="preserve">
<g id="图层_1">
</g>
<g id="图层_1_x5F_复制">
	<path d="M287.094,270.678l-111.11-119.151l110.886-118.91c7.246-7.774,8.067-18.792,1.828-24.608
		c-6.236-5.815-17.171-4.23-24.417,3.543l-109.413,117.33L45.455,11.551c-7.248-7.773-18.182-9.358-24.42-3.542
		c-6.236,5.816-5.417,16.833,1.832,24.607l110.885,118.909L22.638,270.679c-7.246,7.771-8.064,18.788-1.827,24.604
		c6.236,5.817,17.169,4.233,24.416-3.538l109.64-117.573l109.638,117.572c7.247,7.772,18.18,9.356,24.417,3.539
		C295.159,289.467,294.341,278.45,287.094,270.678z"/>
</g>
</svg>
