<?xml version="1.0" encoding="utf-8"?>
<!-- Generator: Adobe Illustrator 16.0.0, SVG Export Plug-In . SVG Version: 6.00 Build 0)  -->
<!DOCTYPE svg PUBLIC "-//W3C//DTD SVG 1.1//EN" "http://www.w3.org/Graphics/SVG/1.1/DTD/svg11.dtd">
<svg version="1.1" id="图层_1" xmlns="http://www.w3.org/2000/svg" xmlns:xlink="http://www.w3.org/1999/xlink" x="0px" y="0px"
	 width="300px" height="300px" viewBox="0 0 300 300" enable-background="new 0 0 300 300" xml:space="preserve">
<path fill-rule="evenodd" clip-rule="evenodd" d="M287.683,71.951c0,0-90.795-55.414-103.941-63.037
	c-13.148-7.616-18.746-6.305-18.746-6.305s0.451,0.145,0,37.819C45.15,40.887,9.08,160.188,9.08,160.188
	c60.062-53.29,102.902-54.103,110.192-56.723c7.289-2.631,45.723-6.305,45.723-6.305s-0.192,1.183,0,37.82
	c-1.053,12.167,18.746,0,18.746,0s85.528-42.676,97.695-50.428S287.683,71.951,287.683,71.951z M262.692,78.247
	c-12.176,7.752-78.951,37.819-78.951,37.819s-7.303,12.174-6.249,0c-0.201-36.638,0-37.819,0-37.819s-91.725-5.042-143.709,47.685
	c0,0,67.142-74.423,143.709-72.895c0.207-17.387,0.224-25.434,0.181-29.064c-4.365-3.25-0.181-2.451-0.181-2.451
	s0.131-1.786,0.181,2.451c1.238,0.923,3.162,2.169,6.068,3.854c13.146,7.614,85.197,44.124,85.197,44.124
	S274.866,70.495,262.692,78.247z"/>
<path fill-rule="evenodd" clip-rule="evenodd" d="M178.859,198.725c-7.293,2.613-45.724,6.264-45.724,6.264s0.193-1.175,0-37.569
	c1.049-12.095-18.745,0-18.745,0s-85.525,42.395-97.695,50.09c-12.171,7.703-6.249,12.528-6.249,12.528
	s90.797,55.051,103.944,62.619c13.147,7.567,18.745,6.257,18.745,6.257s-0.45-0.139,0-37.57
	c119.842-0.452,155.916-118.973,155.916-118.973C228.989,195.314,186.152,196.118,178.859,198.725z M120.639,248.821
	c-0.208,17.276-0.224,25.271-0.181,28.874c4.365,3.227,0.181,2.432,0.181,2.432s-0.131,1.773-0.181-2.432
	c-1.238-0.914-3.163-2.151-6.068-3.825c-13.147-7.565-85.2-43.833-85.2-43.833s-5.922,1.439,6.249-6.264
	c12.17-7.704,78.951-37.57,78.951-37.57s7.298-12.094,6.249,0c0.197,36.396,0,37.57,0,37.57s91.729,5.017,143.708-47.371
	C264.348,176.402,197.201,250.343,120.639,248.821z"/>
</svg>
