<?xml version="1.0" encoding="utf-8"?>
<!-- Generator: Adobe Illustrator 16.0.0, SVG Export Plug-In . SVG Version: 6.00 Build 0)  -->
<!DOCTYPE svg PUBLIC "-//W3C//DTD SVG 1.1//EN" "http://www.w3.org/Graphics/SVG/1.1/DTD/svg11.dtd">
<svg version="1.1" id="图层_1" xmlns="http://www.w3.org/2000/svg" xmlns:xlink="http://www.w3.org/1999/xlink" x="0px" y="0px"
	 width="300px" height="300px" viewBox="0 0 300 300" enable-background="new 0 0 300 300" xml:space="preserve">
<g>
	<path fill-rule="evenodd" clip-rule="evenodd" d="M252.879,258.227c4.813,2.452,20.889,4.404,20.104,21.932
		c-0.93,20.854-27.375,24.807-36.211,10.584c-5.638-9.087-3.521-17.546-1.973-27.223c0.886-5.527-0.515-7.008-1.808-9.042
		c-1.296-2.039-5.925-8.113-5.925-8.113s-3.28,4.468-5.937,8.138c-2.655,3.667-2.676,5.503-1.83,8.654
		c0.839,3.152,4.076,18.238-4.841,28.969c-11.622,13.998-34.454,5.368-34.875-11.516c-0.423-16.893,14.864-21.181,21.832-23.85
		c6.972-2.667,8.83-4.654,11.297-7.579c2.475-2.93,7.831-11.39,7.831-11.39s-3.421-4.313-8.581-10.885
		c-5.157-6.566-11.31-19.55-12.659-23.159c-1.354-3.608-2.898-12.021,0.144-13.758c3.027-1.739,3.626,0.466,5.729,3.547
		c2.102,3.085,21.996,33.843,21.996,33.843s15.305-25.439,18.096-30.253c2.786-4.811,4.405-7.044,5.381-7.797
		c0.974-0.744,3.085-0.364,4.02,1.595c0.938,1.959,0.755,5.022-0.28,11.398c-1.052,6.381-7.696,17.134-10.022,20.694
		c-2.322,3.561-10.874,14.246-10.874,14.246s4.896,7.582,6.443,10.021C242.522,251.354,248.012,255.737,252.879,258.227z
		 M253.312,290.312c5.83,0,10.547-4.7,10.547-10.498c0-5.804-4.717-10.509-10.547-10.509c-5.826,0-10.55,4.705-10.55,10.509
		C242.762,285.611,247.485,290.312,253.312,290.312z M200.469,267.356c-5.351,0-9.692,4.32-9.692,9.652
		c0,5.326,4.342,9.643,9.692,9.643c5.349,0,9.69-4.316,9.69-9.643C210.159,271.677,205.817,267.356,200.469,267.356z
		 M198.211,155.16c0,0-16.408,18.198-17.552,33.512l0,0H70.042c-10.181,0-18.435,8.219-18.435,18.358
		c0,10.136,8.254,18.354,18.435,18.354h110.617c4.168,0,7.967-1.428,11.055-3.748c3.397,7.003,6.214,12.066,6.214,12.066
		s-38.196,5.496-36.347,28.616c0.6,7.517,1.116,13.636,1.562,18.653H52.793c-14.811,0-38.057-18.56-38.057-37.896V43.006
		c0-16.277,16.718-37.894,34.603-37.894h112.869c0,7.573,0,26,0,36.676c0,15.191,9.339,36.697,30.967,36.697
		c11.467,0,32.749,0,43.029,0v87.885l-11.935,19.081L198.211,155.16z M180.659,115.25H70.042c-10.181,0-18.435,8.219-18.435,18.354
		c0,10.139,8.254,18.356,18.435,18.356h110.617c10.182,0,18.436-8.217,18.436-18.356C199.095,123.469,190.841,115.25,180.659,115.25
		z M180.858,41.437c0-4.543,0-29.618,0-36.324h0.643c6.656,0,11.669,2.556,31.244,19.965c21.363,19,23.458,25.085,23.458,30.108
		v4.602c-11.647,0-37.186,0-43.385,0C184.728,59.788,180.858,46.695,180.858,41.437z"/>
</g>
</svg>
