<?xml version="1.0" encoding="utf-8"?>
<!-- Generator: Adobe Illustrator 16.0.0, SVG Export Plug-In . SVG Version: 6.00 Build 0)  -->
<!DOCTYPE svg PUBLIC "-//W3C//DTD SVG 1.1//EN" "http://www.w3.org/Graphics/SVG/1.1/DTD/svg11.dtd">
<svg version="1.1" id="图层_1" xmlns="http://www.w3.org/2000/svg" xmlns:xlink="http://www.w3.org/1999/xlink" x="0px" y="0px"
	 width="300px" height="300px" viewBox="0 0 300 300" enable-background="new 0 0 300 300" xml:space="preserve">
<path d="M297.271,283.727l-78.902-69.593c21.654-22.611,35.047-53.191,35.047-86.887c0-69.357-56.424-125.789-125.788-125.789
	C58.262,1.458,1.838,57.89,1.838,127.247c0,69.356,56.424,125.792,125.789,125.792c28.956,0,55.583-9.932,76.863-26.433
	l79.613,70.287c1.812,1.812,4.197,2.735,6.583,2.735s4.772-0.924,6.584-2.735C300.909,293.255,300.909,287.35,297.271,283.727z
	 M175.767,133.977h-33.128v33.128c0,4.57-3.703,8.283-8.283,8.283c-4.577,0-8.281-3.713-8.281-8.283v-33.128h-33.13
	c-4.577,0-8.281-3.705-8.281-8.283s3.704-8.283,8.281-8.283h33.13V84.282c0-4.577,3.704-8.282,8.281-8.282
	c4.58,0,8.283,3.705,8.283,8.282v33.129h33.128c4.58,0,8.284,3.705,8.284,8.283S180.347,133.977,175.767,133.977z"/>
</svg>
