<?xml version="1.0" encoding="utf-8"?>
<!-- Generator: Adobe Illustrator 16.0.0, SVG Export Plug-In . SVG Version: 6.00 Build 0)  -->
<!DOCTYPE svg PUBLIC "-//W3C//DTD SVG 1.1//EN" "http://www.w3.org/Graphics/SVG/1.1/DTD/svg11.dtd">
<svg version="1.1" id="图层_1" xmlns="http://www.w3.org/2000/svg" xmlns:xlink="http://www.w3.org/1999/xlink" x="0px" y="0px"
	 width="300px" height="300px" viewBox="0 0 300 300" enable-background="new 0 0 300 300" xml:space="preserve">
<g>
	<path fill-rule="evenodd" clip-rule="evenodd" d="M34.109,109.785c17.9,0,32.414,14.513,32.414,32.415
		c0,17.899-14.514,32.413-32.414,32.413c-17.901,0-32.415-14.514-32.415-32.413C1.694,124.298,16.208,109.785,34.109,109.785z"/>
	<path fill-rule="evenodd" clip-rule="evenodd" d="M152.963,109.785c17.901,0,32.415,14.513,32.415,32.415
		c0,17.899-14.514,32.413-32.415,32.413c-17.9,0-32.415-14.514-32.415-32.413C120.548,124.298,135.063,109.785,152.963,109.785z"/>
	<path fill-rule="evenodd" clip-rule="evenodd" d="M266.414,109.785c17.901,0,32.415,14.513,32.415,32.415
		c0,17.899-14.514,32.413-32.415,32.413c-17.902,0-32.415-14.514-32.415-32.413C233.999,124.298,248.512,109.785,266.414,109.785z"
		/>
</g>
</svg>
